<svg id="Layer" enable-background="new 0 0 64 64" height="512" viewBox="0 0 64 64" width="512" xmlns="http://www.w3.org/2000/svg"><path d="m38 16v7h-12v-7c0-1.66 1.34-3 3-3h6c1.66 0 3 1.34 3 3z" fill="#ff7043"/><path d="m54 35v4c0 6.63-5.37 12-12 12h-20c-6.63 0-12-5.37-12-12v-4c0-6.63 5.37-12 12-12h4 12 4c6.63 0 12 5.37 12 12zm-3-6c0-2.21-1.79-4-4-4s-4 1.79-4 4 1.79 4 4 4 4-1.79 4-4zm0 16c0-2.21-1.79-4-4-4s-4 1.79-4 4 1.79 4 4 4 4-1.79 4-4zm-30-16c0-2.21-1.79-4-4-4s-4 1.79-4 4 1.79 4 4 4 4-1.79 4-4zm0 16c0-2.21-1.79-4-4-4s-4 1.79-4 4 1.79 4 4 4 4-1.79 4-4z" fill="#4dd0e1"/><g fill="#e0f7fa"><circle cx="47" cy="29" r="4"/><circle cx="47" cy="45" r="4"/><circle cx="17" cy="29" r="4"/><circle cx="17" cy="45" r="4"/></g><path d="m42 21h-2v-5c0-2.757-2.243-5-5-5h-6c-2.757 0-5 2.243-5 5v5h-2c-7.72 0-14 6.28-14 14v4c0 7.72 6.28 14 14 14h20c7.72 0 14-6.28 14-14v-4c0-7.72-6.28-14-14-14zm7 8c0 1.103-.897 2-2 2s-2-.897-2-2 .897-2 2-2 2 .897 2 2zm-21-13c0-.552.449-1 1-1h6c.551 0 1 .448 1 1v5h-8zm-9 13c0 1.103-.897 2-2 2s-2-.897-2-2 .897-2 2-2 2 .897 2 2zm-4 16c0-1.103.897-2 2-2s2 .897 2 2-.897 2-2 2-2-.897-2-2zm7 4c-.174 0-.344-.017-.517-.026.941-1.06 1.517-2.449 1.517-3.974 0-3.309-2.691-6-6-6-1.916 0-3.621.906-4.72 2.309-.177-.743-.28-1.513-.28-2.309v-4c0-.796.103-1.566.28-2.309 1.099 1.403 2.804 2.309 4.72 2.309 3.309 0 6-2.691 6-6 0-1.525-.576-2.914-1.517-3.974.173-.009.343-.026.517-.026h4 12 4c.174 0 .344.017.517.026-.941 1.06-1.517 2.449-1.517 3.974 0 3.309 2.691 6 6 6 1.916 0 3.621-.906 4.72-2.309.177.743.28 1.513.28 2.309v4c0 .796-.103 1.566-.28 2.309-1.099-1.403-2.804-2.309-4.72-2.309-3.309 0-6 2.691-6 6 0 1.525.576 2.914 1.517 3.974-.173.009-.343.026-.517.026zm23-4c0-1.103.897-2 2-2s2 .897 2 2-.897 2-2 2-2-.897-2-2z" fill="#012e52"/><path d="m35 29h-6c-1.104 0-2 .896-2 2s.896 2 2 2h6c1.104 0 2-.896 2-2s-.896-2-2-2z" fill="#012e52"/></svg>