<svg height="512pt" viewBox="-10 0 512 512.00009" width="512pt" xmlns="http://www.w3.org/2000/svg"><path d="m48.988281 261.960938h394.832031l-13.09375 90.472656c-13.257812 91.597656-91.765624 159.566406-184.320312 159.566406s-171.066406-67.96875-184.324219-159.566406zm0 0" fill="#f2d1a5"/><path d="m402.464844 261.960938-13.09375 90.472656c-12.257813 84.691406-80.296875 149.171875-163.644532 158.417968 6.800782.753907 13.699219 1.148438 20.679688 1.148438 92.554688 0 171.0625-67.96875 184.320312-159.566406l13.09375-90.472656zm0 0" fill="#f2bb88"/><path d="m293.652344 444.410156h-94.492188c-4.285156 0-7.753906-3.46875-7.753906-7.753906 0-4.28125 3.46875-7.753906 7.753906-7.753906h94.492188c4.28125 0 7.753906 3.472656 7.753906 7.753906 0 4.285156-3.472656 7.753906-7.753906 7.753906zm0 0" fill="#74505d"/><path d="m264.429688 400.777344h-43.117188c-4.285156 0-7.753906-3.46875-7.753906-7.753906v-56.507813h15.507812v48.753906h35.363282c4.285156 0 7.753906 3.472657 7.753906 7.753907 0 4.285156-3.46875 7.753906-7.753906 7.753906zm0 0" fill="#74505d"/><path d="m446.699219.285156c-76.671875 25.539063-158.316407 32.496094-238.203125 20.296875l-66.960938-10.230469c-64.019531-9.777343-120.773437 41.925782-116.988281 106.582032 3.980469 67.964844 60.257813 121.039062 128.339844 121.039062h270.691406c44.648437-66.277344 56.726563-149.261718 32.828125-225.515625l-2.851562-9.101562c-1.144532-2.648438-4.121094-3.980469-6.855469-3.070313zm0 0" fill="#ffb72c"/><path d="m456.40625 12.457031-2.851562-9.101562c-1.140626-2.648438-4.121094-3.980469-6.855469-3.070313-10.722657 3.574219-21.546875 6.769532-32.449219 9.613282l.804688 2.558593c23.894531 76.253907 11.816406 159.238281-32.832032 225.515625h41.355469c44.648437-66.277344 56.726563-149.261718 32.828125-225.515625zm0 0" fill="#fea900"/><path d="m17.878906 298.953125h457.054688c9.875 0 17.878906-8.003906 17.878906-17.875v-38.234375c0-9.875-8.003906-17.878906-17.878906-17.878906h-457.054688c-9.875 0-17.878906 8.003906-17.878906 17.878906v38.234375c0 9.871094 8.003906 17.875 17.878906 17.875zm0 0" fill="#e5646e"/><path d="m474.933594 224.964844h-41.355469c9.871094 0 17.875 8.003906 17.875 17.878906v38.234375c0 9.871094-8.003906 17.875-17.875 17.875h41.355469c9.871094 0 17.875-8.003906 17.875-17.875v-38.234375c.003906-9.875-8-17.878906-17.875-17.878906zm0 0" fill="#da2f3c"/><path d="m66.78125 331.957031h359.246094c20.421875 0 36.976562-16.554687 36.976562-36.976562v-66.042969c0-20.421875-16.554687-36.976562-36.976562-36.976562h-359.246094c-20.421875 0-36.976562 16.554687-36.976562 36.976562v66.042969c0 20.421875 16.554687 36.976562 36.976562 36.976562zm0 0" fill="#d1c0c7"/><path d="m426.027344 191.960938h-41.355469c20.421875 0 36.976563 16.554687 36.976563 36.976562v66.042969c0 20.421875-16.554688 36.980469-36.976563 36.980469h41.355469c20.421875 0 36.976562-16.558594 36.976562-36.980469v-66.042969c0-20.421875-16.554687-36.976562-36.976562-36.976562zm0 0" fill="#beadb5"/><path d="m283.367188 145.300781v-123.476562c0-10.214844-8.273438-18.496094-18.480469-18.496094h-36.960938c-10.207031 0-18.480469 8.28125-18.480469 18.496094v123.476562zm0 0" fill="#e5646e"/><path d="m264.886719 3.328125h-28.078125c10.207031 0 18.480468 8.28125 18.480468 18.496094v123.476562h28.074219v-123.476562c.003907-10.214844-8.269531-18.496094-18.476562-18.496094zm0 0" fill="#da2f3c"/><path d="m167.757812 121.757812h157.296876c10.210937 0 18.488281 8.277344 18.488281 18.488282v30.214844h-194.277344v-30.214844c0-10.210938 8.277344-18.488282 18.492187-18.488282zm0 0" fill="#d1c0c7"/><path d="m325.0625 121.757812h-50.132812c10.207031 0 18.480468 8.28125 18.480468 18.496094v30.207032h50.132813v-30.207032c0-10.214844-8.273438-18.496094-18.480469-18.496094zm0 0" fill="#beadb5"/><path d="m154.011719 154.382812h184.789062c50.183594 0 90.066407 42.199219 87.285157 92.351563l-2.609376 46.972656c-2.574218 46.367188-40.886718 82.644531-87.28125 82.644531-15.289062 0-30.308593-4.011718-43.558593-11.632812l-2.667969-1.535156c-26.972656-15.515625-60.148438-15.515625-87.121094 0l-2.664062 1.535156c-13.253906 7.621094-28.273438 11.632812-43.5625 11.632812h-.003906c-46.394532 0-84.707032-36.277343-87.28125-82.644531l-2.609376-46.972656c-2.785156-50.152344 37.097657-92.351563 87.285157-92.351563zm0 0" fill="#84606f"/><g fill="#74505d"><path d="m338.800781 154.382812h-50.132812c50.183593 0 90.066406 42.199219 87.28125 92.351563l-2.605469 46.972656c-2.089844 37.65625-27.757812 68.660157-62.179688 78.976563 8.085938 2.417968 16.515626 3.667968 25.027344 3.667968 46.398438 0 84.710938-36.277343 87.285156-82.644531l2.605469-46.972656c2.785157-50.152344-37.097656-92.351563-87.28125-92.351563zm0 0"/><path d="m244.765625 308.363281c-1.984375 0-3.96875-.753906-5.480469-2.269531-3.027344-3.027344-3.027344-7.9375 0-10.964844l75.644532-75.648437c3.03125-3.027344 7.9375-3.023438 10.96875 0 3.027343 3.03125 3.027343 7.9375 0 10.96875l-75.648438 75.644531c-1.515625 1.515625-3.5 2.269531-5.484375 2.269531zm0 0"/><path d="m172.394531 308.363281c-1.984375 0-3.96875-.753906-5.484375-2.269531-3.027344-3.027344-3.027344-7.9375 0-10.964844l75.648438-75.648437c3.03125-3.027344 7.9375-3.023438 10.96875 0 3.027344 3.03125 3.027344 7.9375 0 10.96875l-75.648438 75.644531c-1.515625 1.515625-3.5 2.269531-5.484375 2.269531zm0 0"/></g></svg>