<?xml version="1.0" encoding="iso-8859-1"?>
<!-- Generator: Adobe Illustrator 21.0.0, SVG Export Plug-In . SVG Version: 6.00 Build 0)  -->
<svg xmlns="http://www.w3.org/2000/svg" xmlns:xlink="http://www.w3.org/1999/xlink" version="1.1" id="Capa_1" x="0px" y="0px" viewBox="0 0 512 512" style="enable-background:new 0 0 512 512;" xml:space="preserve" width="512" height="512">
<g>
	<g>
		<path d="M448.8,415.6h-92.464c-16.867,0-32.751-6.564-44.725-18.484l-32.134-32.134c-6.184-6.216-14.723-9.752-23.478-9.752    s-17.294,3.536-23.427,9.701l-32.156,32.157c-12.002,11.948-27.886,18.513-44.753,18.513H63.2C28.847,415.6,0,387.832,0,352.4    V159.6c0-35.295,28.718-63.2,63.2-63.2h385.6c34.353,0,63.2,27.768,63.2,63.2v192.8C512,387.695,483.282,415.6,448.8,415.6z     M256,325.229c16.682,0,32.973,6.759,44.696,18.544l32.109,32.11c6.284,6.256,14.65,9.717,23.53,9.717H448.8    c18.038,0,33.2-14.603,33.2-33.2V159.6c0-18.608-15.17-33.2-33.2-33.2H63.2c-18.038,0-33.2,14.603-33.2,33.2v192.8    c0,18.608,15.17,33.2,33.2,33.2h92.464c8.88,0,17.246-3.461,23.559-9.745l32.132-32.132    C223.027,331.988,239.318,325.229,256,325.229z"/>
	</g>
	<g>
		<path d="M143.533,319.2c-34.849,0-63.2-28.352-63.2-63.2s28.352-63.2,63.2-63.2s63.2,28.352,63.2,63.2    S178.382,319.2,143.533,319.2z M143.533,222.8c-18.307,0-33.2,14.894-33.2,33.2s14.894,33.2,33.2,33.2s33.2-14.894,33.2-33.2    S161.84,222.8,143.533,222.8z"/>
	</g>
	<g>
		<path d="M368.467,319.2c-34.849,0-63.2-28.352-63.2-63.2s28.352-63.2,63.2-63.2s63.2,28.352,63.2,63.2    S403.315,319.2,368.467,319.2z M368.467,222.8c-18.307,0-33.2,14.894-33.2,33.2s14.894,33.2,33.2,33.2s33.2-14.894,33.2-33.2    S386.773,222.8,368.467,222.8z"/>
	</g>
</g>















</svg>
