<svg height="512" viewBox="0 0 64 64" width="512" xmlns="http://www.w3.org/2000/svg" xmlns:xlink="http://www.w3.org/1999/xlink"><linearGradient id="gradient_ice" gradientUnits="userSpaceOnUse" x1="-.953" x2="69.122" y1="75.776" y2="8.233"><stop offset="0" stop-color="#fff200"/><stop offset="1" stop-color="#cd118c"/></linearGradient><linearGradient id="gradient_ice-2" x1="-18.659" x2="51.416" xlink:href="#gradient_ice" y1="57.406" y2="-10.136"/><linearGradient id="gradient_ice-3" x1="-16.66" x2="53.415" xlink:href="#gradient_ice" y1="59.48" y2="-8.063"/><linearGradient id="gradient_ice-4" x1="-.897" x2="69.179" xlink:href="#gradient_ice" y1="75.835" y2="8.292"/><linearGradient id="gradient_ice-5" x1="-17.079" x2="52.997" xlink:href="#gradient_ice" y1="59.046" y2="-8.497"/><path d="m53 51h-8.584a17.954 17.954 0 0 0 5.313-10h6.271a3 3 0 0 0 3-3v-10a3 3 0 0 0 -3-3h-3v-3a3 3 0 0 0 -3-3v-1h1v-2h-38v2h1v1a3 3 0 0 0 -3 3v3h-3a3 3 0 0 0 -3 3v10a3 3 0 0 0 3 3h6.271a17.954 17.954 0 0 0 5.313 10h-8.584a9.011 9.011 0 0 0 -9 9v1a1 1 0 0 0 1 1h58a1 1 0 0 0 1-1v-1a9.011 9.011 0 0 0 -9-9zm-30.1 2.506a17.834 17.834 0 0 0 18.192 0c1.8.739 2.9 1.675 2.9 2.494 0 1.67-4.565 4-12 4s-12-2.33-12-4c.008-.819 1.115-1.755 2.908-2.494zm33.1-26.506a1 1 0 0 1 1 1v2h-2v2h2v2h-2v2h2v2a1 1 0 0 1 -1 1h-6.051c.019-.333.051-.662.051-1v-1.278a7 7 0 0 0 3-5.722v-4zm-40-9h32v1h-32zm-3 4a1 1 0 0 1 1-1h36a1 1 0 0 1 1 1v9a5 5 0 0 1 -2.509 4.329 4.829 4.829 0 0 1 -2.491.671h-28a5.023 5.023 0 0 1 -5-5zm-5 17a1 1 0 0 1 -1-1v-2h2v-2h-2v-2h2v-2h-2v-2a1 1 0 0 1 1-1h3v4a6.974 6.974 0 0 0 3 5.73v1.27c0 .338.032.667.051 1zm8-1v-.3a6.985 6.985 0 0 0 2 .3h28a6.989 6.989 0 0 0 2-.3v.3a16 16 0 0 1 -32 0zm-12 22a7.008 7.008 0 0 1 7-7h8.739a3.869 3.869 0 0 0 -1.739 3c0 1.673 1.335 3.013 3.389 4zm38.611 0c2.054-.987 3.389-2.327 3.389-4a3.869 3.869 0 0 0 -1.739-3h8.739a7.008 7.008 0 0 1 7 7z" fill="url(#gradient_ice)"/><path d="m15 23h2v2h-2z" fill="url(#gradient_ice-2)"/><path d="m15 27h2v2h-2z" fill="url(#gradient_ice-3)"/><path d="m50 30v-5h-2v5a3 3 0 0 1 -3 3h-7v2h7a5.006 5.006 0 0 0 5-5z" fill="url(#gradient_ice-4)"/><path d="m27 4a10.946 10.946 0 0 1 7.608 3.052 1 1 0 0 0 1.219.128 7.9 7.9 0 0 1 4.173-1.18 8.009 8.009 0 0 1 8 8h2a10 10 0 0 0 -14.565-8.9 13 13 0 0 0 -21.435 9.9h2a11.013 11.013 0 0 1 11-11z" fill="url(#gradient_ice-5)"/></svg>